<svg id="Capa_1" enable-background="new 0 0 512 512" height="512" viewBox="0 0 512 512" width="512"
     xmlns="http://www.w3.org/2000/svg">

    <g>
        <g>
            <path style="fill:#7367f0;" d="m151.953 124.098h6.061c4.142 0 7.5-3.357 7.5-7.5s-3.358-7.5-7.5-7.5h-6.061c-4.142 0-7.5 3.357-7.5 7.5s3.358 7.5 7.5 7.5z"/>
            <path style="fill:#7367f0;" d="m200.441 124.098c4.142 0 7.5-3.357 7.5-7.5s-3.358-7.5-7.5-7.5h-6.061c-4.142 0-7.5 3.357-7.5 7.5s3.358 7.5 7.5 7.5z"/>
            <path style="fill:#7367f0;" d="m360.047 124.098c4.142 0 7.5-3.357 7.5-7.5s-3.358-7.5-7.5-7.5h-6.061c-4.142 0-7.5 3.357-7.5 7.5s3.358 7.5 7.5 7.5z"/>
            <path style="fill:#7367f0;" d="m317.62 124.098c4.142 0 7.5-3.357 7.5-7.5s-3.358-7.5-7.5-7.5h-6.061c-4.142 0-7.5 3.357-7.5 7.5s3.358 7.5 7.5 7.5z"/>
            <path style="fill:#7367f0;" d="m32.33 375.2c0 15.274 12.426 27.7 27.7 27.7h317.52c4.142 0 7.5-3.357 7.5-7.5s-3.358-7.5-7.5-7.5h-317.52c-7.002 0-12.7-5.697-12.7-12.7v-173.75c0-7.003 5.697-12.7 12.7-12.7h391.94c7.002 0 12.7 5.697 12.7 12.7v173.75c0 7.003-5.697 12.7-12.7 12.7h-39.42c-4.142 0-7.5 3.357-7.5 7.5s3.358 7.5 7.5 7.5h39.42c15.273 0 27.7-12.426 27.7-27.7v-173.75c0-15.274-12.426-27.7-27.7-27.7h-391.94c-15.273 0-27.7 12.426-27.7 27.7z"/>
            <path style="fill:#7367f0;" d="m484.3 76.77h-322.6c-4.142 0-7.5 3.357-7.5 7.5s3.358 7.5 7.5 7.5h245.725l-12.731 40.739c-1.666 5.332-6.539 8.914-12.125 8.914h-253.138c-5.586 0-10.459-3.582-12.125-8.914l-12.731-40.739h22.125c4.142 0 7.5-3.357 7.5-7.5s-3.358-7.5-7.5-7.5h-99c-15.274 0-27.7 12.43-27.7 27.71v303.04c0 15.28 12.426 27.711 27.7 27.711h44.3c4.142 0 7.5-3.357 7.5-7.5s-3.358-7.5-7.5-7.5h-44.3c-7.003 0-12.7-5.702-12.7-12.711v-303.04c0-7.009 5.697-12.711 12.7-12.711h61.159l14.129 45.214c3.634 11.627 14.26 19.439 26.442 19.439h253.139c12.182 0 22.809-7.812 26.442-19.439l14.129-45.214h61.16c7.003 0 12.7 5.702 12.7 12.711v303.04c0 7.009-5.697 12.711-12.7 12.711h-377.3c-4.142 0-7.5 3.357-7.5 7.5s3.358 7.5 7.5 7.5h377.3c15.274 0 27.7-12.431 27.7-27.711v-303.04c0-15.28-12.426-27.71-27.7-27.71z"/>
            <path style="fill:#7367f0;" d="m425.126 288.325c0-21.96-17.865-39.825-39.825-39.825h-258.602c-21.96 0-39.825 17.865-39.825 39.825s17.865 39.825 39.825 39.825h258.602c21.96 0 39.825-17.865 39.825-39.825zm-125.777 24.825c-2.328-8.025-3.524-16.349-3.524-24.825s1.196-16.8 3.524-24.825h54.844c-5.449 6.813-8.718 15.442-8.718 24.825s3.269 18.012 8.718 24.825zm-141.543 0c5.449-6.813 8.718-15.442 8.718-24.825s-3.269-18.012-8.718-24.825h54.844c2.328 8.025 3.524 16.349 3.524 24.825s-1.196 16.8-3.524 24.825zm70.366-49.65h55.655c-1.981 8.082-3.002 16.391-3.002 24.825s1.021 16.744 3.002 24.825h-55.655c1.981-8.082 3.002-16.391 3.002-24.825s-1.021-16.743-3.002-24.825zm-126.298 24.825c0-13.688 11.137-24.825 24.825-24.825s24.825 11.137 24.825 24.825-11.137 24.825-24.825 24.825-24.825-11.136-24.825-24.825zm283.427 24.825c-13.688 0-24.825-11.137-24.825-24.825s11.137-24.825 24.825-24.825 24.825 11.137 24.825 24.825-11.137 24.825-24.825 24.825z"/>
            <circle style="fill:#7367f0;" cx="462.073" cy="126.699" r="10.102"/>
            <circle style="fill:#7367f0;" cx="49.927" cy="126.699" r="10.102"/>
        </g>
    </g>
</svg>
